<svg width="94" height="94" viewBox="0 0 94 94" fill="none" xmlns="http://www.w3.org/2000/svg">
<path d="M47.109 87.0714C25.1526 87.0714 7.29004 69.2088 7.29004 47.2524C7.29004 25.2959 25.1526 7.43335 47.109 7.43335C69.0655 7.43335 86.928 25.2959 86.928 47.2524C86.928 69.2088 69.0655 87.0714 47.109 87.0714ZM47.109 10.1338C26.6432 10.1338 9.99049 26.7848 9.99049 47.2524C9.99049 67.7181 26.6432 84.3709 47.109 84.3709C67.5784 84.3709 84.2276 67.7181 84.2276 47.2524C84.2276 26.7848 67.5784 10.1338 47.109 10.1338Z" fill="#006EF5" fill-opacity="0.5"/>
<path d="M47.1106 64.9061C46.7667 64.9061 46.4211 64.7765 46.1582 64.5118L34.3951 52.7811C34.2475 52.6479 30.0762 48.6926 30.0762 43.9812C30.0762 38.2023 33.5003 34.7511 39.2343 34.7511C42.5054 34.7511 45.5641 37.3363 47.1124 38.8954C48.6607 37.3363 51.7212 34.7511 54.9905 34.7511C60.7263 34.7511 64.1486 38.2023 64.1486 43.9812C64.1486 48.689 59.9773 52.6443 59.7973 52.8099L48.0648 64.5082C47.8001 64.7765 47.4563 64.9061 47.1106 64.9061ZM39.2325 37.4551C36.2872 37.4551 32.7748 38.5875 32.7748 43.9848C32.7748 47.5098 36.235 50.8098 36.271 50.8458L47.1106 61.6529L57.9214 50.8746C57.9862 50.8134 61.4464 47.5134 61.4464 43.9884C61.4464 38.5911 57.934 37.4587 54.9887 37.4587C52.2541 37.4587 49.1323 40.5589 48.1584 41.7525C47.6453 42.3826 46.5759 42.3826 46.0628 41.7525C45.0907 40.5535 41.9671 37.4551 39.2325 37.4551Z" fill="#006EF5"/>
</svg>
