<svg width="882" height="882" viewBox="0 0 882 882" fill="none" xmlns="http://www.w3.org/2000/svg">
<path fill-rule="evenodd" clip-rule="evenodd" d="M748.551 703.755C748.357 698.224 748.826 692.693 752.303 688.796C758.804 681.955 772.259 684.219 775.688 693.243C778.372 701.96 766.793 707.345 766.324 698.208C765.435 692.758 756.831 696.267 759.419 704.547C764.092 718.924 778.388 716.854 784.065 696.138C787.461 700.003 795.304 701.943 797.277 699.21C799.315 696.477 793.331 688.585 790.275 687.615C810.749 681.065 805.768 661.562 790.647 661.562C781.962 661.675 781.283 670.925 786.766 670.085C795.579 667.707 794.043 680.402 784.922 680.532C775.283 680.063 768.96 667.95 773.472 659.67C775.898 655.497 780.588 653.524 785.391 651.972C784.34 646.538 784.518 641.266 787.348 636.867C792.668 629.089 806.334 629.218 811.137 637.595C815.147 645.778 804.555 652.91 802.663 643.967C800.916 638.711 792.976 643.53 796.825 651.309C803.714 664.78 817.492 660.495 819.87 639.131C823.816 642.43 831.869 643.11 833.373 640.102C834.974 637.077 827.81 630.221 824.64 629.735C843.837 620.065 835.864 601.596 820.921 603.957C812.382 605.429 813.158 614.679 818.43 612.981C826.775 609.262 827.228 622.021 818.252 623.59C808.662 624.641 800.512 613.677 803.665 604.782C805.412 600.286 809.52 598.135 814.015 595.839C812.139 590.631 811.476 585.392 813.595 580.621C817.654 572.115 831.158 570.109 837.206 577.629C842.446 585.084 833.098 593.785 829.832 585.246C827.293 580.33 820.209 586.314 825.206 593.397C834.101 605.639 847.055 599.267 846.068 577.791C850.483 580.427 858.537 579.861 859.572 576.643C860.672 573.408 852.537 567.764 849.335 567.764C866.785 555.231 856.03 538.218 841.653 542.892C833.422 545.657 835.637 554.681 840.586 552.191C848.252 547.21 850.694 559.743 842.074 562.686C832.743 565.209 823.007 555.651 824.737 546.385C825.756 541.663 829.524 538.687 833.616 535.728C830.931 530.876 829.476 525.814 830.818 520.768C833.503 511.728 846.521 507.637 853.669 514.122C860.009 520.671 852.133 530.73 847.572 522.806C844.306 518.343 838.225 525.361 844.289 531.571C854.979 542.277 866.768 533.949 862.451 512.909C867.221 514.833 875.097 512.99 875.615 509.658C876.197 506.294 867.286 501.977 864.116 502.494C879.399 487.373 866.122 472.252 852.634 479.109C844.952 483.136 848.543 491.707 853.038 488.473C859.831 482.344 864.197 494.36 856.143 498.613C847.33 502.559 836.22 494.634 836.478 485.206C836.753 480.387 840.036 476.409 843.61 472.835C840.214 468.468 837.982 463.697 838.5 458.506C839.729 449.143 851.955 443.062 860.041 448.35C867.334 453.816 861.124 464.991 855.383 457.875C851.454 453.978 846.553 461.87 853.507 467.061C865.75 475.94 876.1 465.881 868.515 445.763C873.528 446.911 881.016 443.871 881 440.491C881.048 437.078 871.572 434.216 868.515 435.218C881.242 417.898 865.75 405.042 853.507 413.936C846.553 419.127 851.454 427.019 855.383 423.122C861.124 416.006 867.334 427.181 860.041 432.647C851.955 437.919 839.729 431.839 838.5 422.491C838.015 417.704 840.715 414.227 843.691 410.136C839.664 406.351 836.705 401.985 836.43 396.761C836.187 387.333 847.33 379.441 856.127 383.403C864.181 387.673 859.766 399.672 853.006 393.543C848.51 390.293 844.904 398.848 852.569 402.891C866.041 409.78 874.693 398.233 864.1 379.538C869.227 379.894 876.164 375.738 875.615 372.406C875.146 369.01 865.329 367.668 862.467 369.124C872.364 350.041 855.06 339.739 844.354 350.412C838.29 356.623 844.338 363.657 847.621 359.194C852.198 351.286 860.057 361.361 853.702 367.894C846.521 374.363 833.519 370.239 830.85 361.199C829.638 356.526 831.643 352.175 833.939 347.679C829.363 344.558 825.772 340.709 824.673 335.599C822.975 326.316 832.743 316.791 842.058 319.33C850.677 322.289 848.187 334.839 840.554 329.826C835.605 327.319 833.373 336.343 841.589 339.141C855.966 343.847 862.709 331.071 849.319 314.268C854.445 313.815 860.639 308.624 859.588 305.422C858.585 302.155 848.688 302.333 846.084 304.241C852.877 283.832 834.198 276.361 825.271 288.587C820.242 295.654 827.325 301.654 829.88 296.738C833.147 288.215 842.494 296.932 837.222 304.387C831.158 311.891 817.654 309.853 813.627 301.33C811.687 296.916 812.819 291.87 814.387 287.067C809.374 284.722 805.218 281.471 803.342 276.603C800.205 267.709 808.339 256.76 817.945 257.795C826.921 259.38 826.452 272.14 818.107 268.404C812.835 266.706 812.042 275.973 820.597 277.444C835.524 279.822 840.198 266.156 824.333 251.666C829.314 250.405 834.619 244.308 833.082 241.3C831.578 238.243 821.826 239.974 819.562 242.27C823.056 221.053 803.423 216.605 796.533 230.077C792.685 237.839 800.625 242.675 802.355 237.419C804.264 228.476 814.856 235.624 810.829 243.79C806.01 252.168 792.361 252.281 787.04 244.502C784.437 240.443 784.712 235.219 785.504 230.222C780.2 228.686 775.575 226.147 772.955 221.635C768.459 213.339 774.766 201.242 784.421 200.757C793.525 200.902 795.062 213.597 786.248 211.204C780.766 210.363 781.445 219.63 790.129 219.743C805.25 219.743 807.708 205.511 789.757 193.69C794.48 191.668 798.765 184.811 796.76 182.094C794.787 179.297 785.439 182.563 783.564 185.167C783.677 163.658 763.591 162.364 758.917 176.758C756.33 185.038 764.917 188.547 765.823 183.081C766.292 173.944 777.871 179.345 775.186 188.062C771.742 197.086 758.287 199.334 751.802 192.493C748.583 188.903 748.406 184.1 748.406 179.038C742.907 178.359 737.942 176.563 734.643 172.504C728.918 165.033 733.269 152.095 742.713 150.122C751.737 148.828 755.246 161.119 746.158 160.149C740.611 160.165 742.729 169.205 751.317 167.96C766.259 165.615 766.454 151.173 746.885 142.295C751.252 139.562 754.389 132.123 751.996 129.746C749.618 127.287 740.886 131.977 739.446 134.84C736.196 113.59 716.159 115.433 713.781 130.376C712.52 138.964 721.56 141.082 721.592 135.551C720.622 126.463 732.913 129.988 731.619 138.996C729.63 148.457 716.692 152.791 709.221 147.033C705.469 143.993 704.191 138.98 703.399 133.983C697.868 134.177 692.693 133.174 688.796 129.697C681.955 123.196 684.219 109.741 693.243 106.312C701.96 103.628 707.345 115.207 698.208 115.676C692.742 116.565 696.251 125.169 704.547 122.581C718.924 117.908 716.854 103.628 696.138 97.9352C700.003 94.5552 701.943 86.6956 699.21 84.7227C696.477 82.685 688.585 88.6686 687.615 91.7413C681.065 71.2514 661.562 76.2324 661.562 91.3532C661.675 100.038 670.925 100.717 670.085 95.2345C667.707 86.4207 680.402 87.9571 680.532 97.0781C680.063 106.717 667.95 113.04 659.67 108.528C655.497 106.102 653.524 101.412 651.972 96.6091C646.538 97.6603 641.266 97.4824 636.867 94.6684C629.089 89.3317 629.218 75.6825 637.595 70.8632C645.778 66.8526 652.91 77.4452 643.967 79.3374C638.711 81.084 643.53 89.0244 651.309 85.1755C664.78 78.2862 660.495 64.5076 639.131 62.1465C642.43 58.2006 643.11 50.1307 640.102 48.6267C637.077 47.0257 630.221 54.1899 629.735 57.3596C620.065 38.1635 601.58 46.1362 603.957 61.0792C605.429 69.6342 614.679 68.8417 612.997 63.5697C609.262 55.2249 622.021 54.7721 623.59 63.7476C624.641 73.3376 613.677 81.4883 604.782 78.3347C600.286 76.5881 598.135 72.4804 595.839 67.9846C590.631 69.8768 585.392 70.5236 580.621 68.4051C572.098 64.3459 570.109 50.8423 577.629 44.794C585.084 39.5542 593.785 48.9178 585.246 52.1684C580.33 54.7074 586.314 61.8069 593.397 56.7936C605.639 47.899 599.251 34.9452 577.791 35.9317C580.427 31.5168 579.861 23.4631 576.643 22.4281C573.408 21.3284 567.764 29.4629 567.764 32.6811C555.231 15.2154 538.218 25.9698 542.876 40.3467C545.657 48.5782 554.681 46.3627 552.191 41.414C547.21 33.7485 559.743 31.3065 562.686 39.9424C565.209 49.2574 555.651 58.993 546.385 57.2788C541.663 56.2438 538.687 52.4757 535.728 48.4003C530.876 51.0687 525.814 52.5242 520.768 51.1819C511.728 48.4974 507.637 35.4789 514.122 28.3309C520.671 21.9914 530.73 29.8672 522.806 34.4277C518.343 37.6945 525.361 43.7751 531.571 37.7106C542.277 27.0209 533.949 15.2315 512.909 19.5495C514.817 14.7787 512.99 6.90297 509.658 6.38546C506.294 5.80327 501.977 14.714 502.494 17.8999C487.373 2.60121 472.252 15.8784 479.109 29.3659C483.136 37.0476 491.707 33.4574 488.473 28.9616C482.344 22.1693 494.36 17.8029 498.613 25.8566C502.559 34.6703 494.634 45.7805 485.206 45.5217C480.387 45.2468 476.409 41.9639 472.835 38.3899C468.468 41.786 463.697 44.0177 458.49 43.5002C449.143 42.2711 443.062 30.0451 448.35 21.9591C453.816 14.6655 464.991 20.8756 457.875 26.6166C453.978 30.5626 461.87 35.4466 467.061 28.4926C475.94 16.2504 465.864 5.91648 445.763 13.485C446.911 8.47165 443.871 0.984014 440.491 1.00019C437.078 0.95167 434.216 10.4285 435.218 13.485C417.898 0.757606 405.042 16.2504 413.936 28.4926C419.111 35.4466 427.003 30.5626 423.106 26.6166C416.006 20.8756 427.181 14.6655 432.647 21.9591C437.919 30.0451 431.839 42.2711 422.491 43.5002C417.688 43.9854 413.257 42.1094 409.165 39.1499C405.381 43.1768 401.969 45.2953 396.761 45.5702C387.333 45.8128 379.441 34.6703 383.403 25.8727C387.673 17.8191 399.672 22.234 393.543 28.9939C390.293 33.4897 398.848 37.0961 402.891 29.4306C409.78 15.9593 398.233 7.30727 379.538 17.8999C379.894 12.7734 375.722 5.83562 372.406 6.38546C369.01 6.85445 367.652 16.6709 369.124 19.5333C350.024 9.63604 339.739 26.9401 350.412 37.6459C356.606 43.7266 363.657 37.6621 359.194 34.3792C351.286 29.8025 361.361 21.9429 367.894 28.3147C374.363 35.4789 370.239 48.4974 361.199 51.1496C356.526 52.3786 352.175 50.3571 347.679 48.0607C344.558 52.6374 340.709 56.2276 335.599 57.3273C326.316 59.0253 316.791 49.2575 319.33 39.9585C322.289 31.3389 334.823 33.8132 329.826 41.4625C327.319 46.395 336.343 48.6267 339.141 40.4114C343.831 26.0345 331.071 19.2907 314.268 32.6811C313.815 27.5546 308.624 21.3607 305.422 22.4119C302.139 23.4146 302.333 33.3119 304.241 35.9155C283.832 29.1233 276.361 47.8181 288.587 56.7289C295.654 61.7584 301.654 54.6751 296.738 52.1361C288.215 48.8531 296.932 39.5057 304.371 44.7778C311.891 50.8423 309.853 64.3459 301.33 68.3728C296.916 70.3134 292.112 69.9091 287.309 68.3242C284.964 73.3376 281.471 76.7822 276.603 78.6582C267.709 81.7955 256.744 73.661 257.795 64.0548C259.38 55.0794 272.14 55.5645 268.404 63.8931C266.706 69.1652 275.957 69.9576 277.428 61.4026C279.822 46.4759 266.156 41.8183 251.666 57.6669C250.405 52.6859 244.308 47.3815 241.3 48.934C238.227 50.438 239.974 60.1735 242.254 62.4376C221.036 58.9445 216.605 78.5773 230.077 85.4666C237.839 89.3155 242.658 81.3751 237.403 79.6446C228.476 77.7364 235.624 67.1437 243.79 71.1705C252.168 75.9898 252.281 89.6389 244.502 94.9595C240.443 97.5794 235.203 97.2883 230.222 96.4959C228.686 101.8 226.131 106.425 221.619 109.045C213.339 113.541 201.242 107.234 200.757 97.5956C200.902 88.4746 213.597 86.9382 211.204 95.752C210.363 101.234 219.63 100.555 219.727 91.8868C219.743 76.7499 205.511 74.3079 193.69 92.2426C191.668 87.5204 184.811 83.251 182.094 85.2402C179.297 87.2131 182.547 96.5606 185.167 98.4365C163.658 98.3233 162.364 118.409 176.741 123.083C185.021 125.67 188.547 117.083 183.081 116.177C173.944 115.708 179.345 104.129 188.046 106.814C197.07 110.258 199.334 123.713 192.493 130.198C188.887 133.417 184.1 133.611 179.038 133.594C178.359 139.093 176.563 144.058 172.504 147.357C165.033 153.098 152.095 148.731 150.122 139.287C148.828 130.263 161.119 126.77 160.149 135.842C160.165 141.389 169.205 139.271 167.96 130.683C165.599 115.757 151.173 115.546 142.295 135.115C139.562 130.764 132.123 127.611 129.746 130.004C127.287 132.382 131.977 141.114 134.84 142.554C113.574 145.804 115.433 165.841 130.376 168.219C138.964 169.48 141.082 160.44 135.551 160.408C126.463 161.378 129.972 149.087 138.996 150.381C148.44 152.37 152.774 165.324 147.033 172.795C143.977 176.531 138.98 177.825 133.983 178.601C134.177 184.132 133.174 189.307 129.697 193.204C123.196 200.045 109.741 197.781 106.312 188.757C103.628 180.057 115.207 174.655 115.676 183.792C116.565 189.258 125.169 185.749 122.581 177.469C117.908 163.076 103.612 165.146 97.9352 185.862C94.5391 181.997 86.6956 180.057 84.7227 182.79C82.685 185.539 88.6686 193.415 91.7251 194.401C71.2514 200.935 76.2324 220.438 91.3532 220.438C100.038 220.325 100.717 211.075 95.2345 211.915C86.4207 214.293 87.9571 201.614 97.0781 201.468C106.717 201.954 113.024 214.05 108.528 222.33C106.102 226.503 101.412 228.476 96.6091 230.044C97.6603 235.462 97.4824 240.734 94.6684 245.133C89.3317 252.912 75.6825 252.782 70.8632 244.405C66.8526 236.238 77.4452 229.09 79.3374 238.033C81.0678 243.289 89.0082 238.47 85.1755 230.691C78.2862 217.236 64.5076 221.505 62.1465 242.869C58.1844 239.57 50.1307 238.89 48.6267 241.915C47.0257 244.939 54.1899 251.779 57.3596 252.265C38.1635 261.935 46.1362 280.42 61.0792 278.043C69.6342 276.571 68.8417 267.321 63.5697 269.019C55.2249 272.738 54.7721 259.979 63.7476 258.41C73.3376 257.375 81.4721 268.323 78.3347 277.218C76.5881 281.714 72.4804 283.865 67.9846 286.161C69.8768 291.369 70.5236 296.608 68.4051 301.379C64.3459 309.902 50.8423 311.891 44.794 304.371C39.5542 296.916 48.9017 288.215 52.1684 296.754C54.7074 301.67 61.8069 295.686 56.7936 288.603C47.899 276.361 34.9452 282.749 35.9317 304.209C31.5168 301.573 23.4631 302.139 22.4281 305.357C21.3284 308.592 29.4629 314.252 32.6811 314.236C15.2154 326.785 25.9698 343.782 40.3467 339.124C48.5782 336.343 46.3627 327.319 41.414 329.809C33.7485 334.79 31.3065 322.257 39.9424 319.314C49.2574 316.791 58.993 326.349 57.2788 335.615C56.2438 340.337 52.4757 343.313 48.4003 346.272C51.0687 351.124 52.5242 356.186 51.1819 361.248C48.4974 370.272 35.4789 374.363 28.3309 367.878C21.9914 361.329 29.8672 351.27 34.4277 359.194C37.6945 363.674 43.7751 356.639 37.7106 350.429C27.0209 339.723 15.2315 348.051 19.5495 369.091C14.7787 367.183 6.90297 369.01 6.38546 372.342C5.80327 375.706 14.714 380.023 17.8999 379.506C2.60121 394.627 15.8784 409.748 29.3659 402.891C37.0476 398.864 33.4574 390.309 28.9616 393.527C22.1693 399.656 17.8029 387.64 25.8566 383.387C34.6703 379.441 45.7805 387.366 45.5217 396.794C45.2468 401.613 41.9639 405.591 38.3899 409.165C41.786 413.532 44.0177 418.303 43.5002 423.51C42.2711 432.857 30.0451 438.938 21.9591 433.65C14.6655 428.184 20.8756 417.009 26.6166 424.124C30.5626 428.022 35.4466 420.13 28.4926 414.939C16.2504 406.06 5.91648 416.136 13.485 436.237C8.47165 435.089 0.984014 438.129 1.00019 441.509C0.95167 444.922 10.4285 447.784 13.485 446.781C0.757606 464.118 16.2504 476.958 28.4926 468.064C35.4466 462.889 30.5626 454.997 26.6166 458.894C20.8756 465.994 14.6655 454.835 21.9591 449.353C30.0451 444.081 42.2711 450.161 43.5002 459.509C43.9854 464.312 41.2846 467.773 38.309 471.864C42.352 475.649 45.2953 480.031 45.5702 485.239C45.8128 494.667 34.6703 502.559 25.8727 498.597C17.8191 494.327 22.234 482.328 28.9939 488.457C33.4897 491.707 37.0961 483.152 29.4306 479.109C15.9593 472.22 7.30727 483.767 17.8999 502.462C12.7734 502.106 5.83562 506.278 6.38546 509.61C6.85445 512.99 16.6709 514.348 19.5333 512.877C9.63604 531.976 26.9401 542.261 37.6459 531.588C43.7266 525.394 37.6621 518.343 34.3792 522.806C29.8025 530.73 21.9591 520.639 28.3147 514.122C35.4789 507.653 48.4974 511.761 51.1496 520.801C52.3786 525.474 50.3571 529.825 48.0607 534.321C52.6374 537.442 56.2276 541.291 57.3273 546.401C59.0253 555.684 49.2574 565.225 39.9424 562.67C31.3389 559.711 33.8132 547.177 41.4625 552.174C46.395 554.681 48.6267 545.673 40.4114 542.876C26.0345 538.17 19.2907 550.929 32.6811 567.732C27.5546 568.185 21.3607 573.376 22.4119 576.578C23.4146 579.861 33.3119 579.667 35.9155 577.775C29.1233 598.168 47.8181 605.639 56.7289 593.429C61.7584 586.346 54.6751 580.346 52.1199 585.262C48.8531 593.785 39.5057 585.068 44.7778 577.629C50.8423 570.109 64.3459 572.147 68.3728 580.67C70.3134 585.085 69.1814 590.13 67.6127 594.933C72.626 597.278 76.7822 600.529 78.6582 605.397C81.7955 614.291 73.661 625.256 64.0548 624.205C55.0794 622.62 55.5484 609.86 63.8931 613.596C69.1652 615.294 69.9576 606.043 61.4026 604.572C46.4759 602.178 41.8183 615.844 57.6669 630.35C52.6859 631.595 47.3815 637.692 48.934 640.7C50.4218 643.773 60.1735 642.026 62.4376 639.746C58.9445 660.964 78.5773 665.395 85.4666 651.923C89.3155 644.161 81.3751 639.342 79.6446 644.597C77.7364 653.541 67.1437 646.376 71.1705 638.21C75.9898 629.832 89.6389 629.719 94.9595 637.498C97.5794 641.557 97.2883 646.797 96.4959 651.778C101.8 653.314 106.425 655.869 109.045 660.381C113.541 668.661 107.234 680.774 97.5956 681.243C88.4746 681.098 86.9382 668.419 95.752 670.796C101.234 671.637 100.555 662.371 91.8868 662.273C76.7499 662.257 74.2917 676.489 92.2426 688.31C87.5204 690.332 83.2348 697.189 85.2402 699.906C87.2131 702.703 96.5606 699.453 98.4365 696.833C98.3233 718.342 118.409 719.636 123.083 705.259C125.67 696.979 117.083 693.453 116.177 698.935C115.708 708.056 104.129 702.655 106.814 693.954C110.258 684.93 123.713 682.666 130.198 689.507C133.417 693.114 133.594 697.9 133.594 702.962C139.093 703.641 144.058 705.437 147.357 709.496C153.098 716.983 148.731 729.921 139.287 731.894C130.263 733.172 126.754 720.881 135.842 721.851C141.389 721.835 139.271 712.795 130.683 714.04C115.757 716.401 115.546 730.827 135.115 739.705C130.764 742.438 127.611 749.877 130.004 752.254C132.382 754.713 141.114 750.039 142.554 747.16C145.804 768.426 165.841 766.567 168.219 751.624C169.48 743.053 160.44 740.918 160.408 746.449C161.378 755.537 149.087 752.028 150.381 743.004C152.37 733.56 165.324 729.226 172.795 734.967C176.531 738.023 177.825 743.02 178.601 748.017C184.132 747.84 189.307 748.826 193.204 752.319C200.045 758.804 197.781 772.259 188.757 775.704C180.057 778.388 174.655 766.793 183.792 766.324C189.258 765.435 185.749 756.847 177.453 759.419C163.076 764.092 165.146 778.388 185.862 784.081C181.997 787.461 180.057 795.304 182.79 797.277C185.523 799.315 193.415 793.331 194.385 790.275C200.935 810.749 220.438 805.768 220.438 790.647C220.325 781.962 211.075 781.283 211.915 786.766C214.293 795.595 201.614 794.043 201.468 784.922C201.937 775.283 214.05 768.976 222.33 773.472C226.503 775.898 228.476 780.588 230.044 785.391C235.462 784.34 240.734 784.518 245.133 787.348C252.912 792.685 252.782 806.334 244.405 811.137C236.222 815.147 229.09 804.555 238.033 802.663C243.289 800.932 238.47 792.992 230.691 796.841C217.22 803.714 221.505 817.492 242.869 819.87C239.57 823.816 238.89 831.869 241.898 833.373C244.923 834.974 251.779 827.826 252.265 824.64C261.935 843.853 280.42 835.864 278.043 820.921C276.571 812.382 267.321 813.158 269.019 818.43C272.738 826.775 259.979 827.244 258.41 818.252C257.359 808.662 268.323 800.528 277.218 803.665C281.714 805.412 283.865 809.52 286.161 814.015C291.369 812.139 296.608 811.476 301.379 813.595C309.902 817.654 311.891 831.158 304.371 837.206C296.916 842.446 288.215 833.098 296.754 829.832C301.67 827.293 295.686 820.193 288.603 825.206C276.361 834.101 282.749 847.055 304.209 846.068C301.573 850.483 302.139 858.537 305.357 859.572C308.592 860.672 314.252 852.537 314.236 849.335C326.769 866.785 343.782 856.03 339.124 841.653C336.343 833.422 327.319 835.637 329.809 840.586C334.79 848.252 322.257 850.694 319.314 842.058C316.791 832.743 326.349 823.007 335.615 824.737C340.337 825.756 343.313 829.524 346.272 833.616C351.124 830.931 356.186 829.476 361.232 830.818C370.272 833.503 374.363 846.521 367.878 853.669C361.329 860.009 351.27 852.133 359.194 847.572C363.674 844.306 356.639 838.225 350.429 844.289C339.723 854.979 348.051 866.768 369.091 862.451C367.183 867.221 369.01 875.097 372.342 875.615C375.706 876.197 380.023 867.286 379.506 864.116C394.627 879.399 409.748 866.122 402.891 852.634C398.864 844.952 390.293 848.543 393.527 853.038C399.656 859.831 387.64 864.197 383.387 856.143C379.441 847.33 387.366 836.22 396.794 836.478C401.613 836.753 405.591 840.036 409.165 843.61C413.532 840.214 418.303 837.982 423.51 838.5C432.857 839.729 438.938 851.955 433.65 860.041C428.184 867.334 417.009 861.124 424.124 855.383C428.022 851.454 420.13 846.553 414.939 853.507C406.06 865.75 416.136 876.1 436.237 868.515C435.089 873.528 438.129 881.016 441.509 881C444.922 881.048 447.784 871.572 446.781 868.515C464.102 881.242 476.958 865.75 468.064 853.507C462.889 846.553 454.997 851.454 458.894 855.383C465.994 861.124 454.819 867.334 449.353 860.041C444.081 851.955 450.161 839.729 459.509 838.5C464.312 838.015 467.773 840.715 471.864 843.691C475.649 839.664 480.015 836.705 485.239 836.43C494.667 836.187 502.559 847.33 498.597 856.127C494.327 864.181 482.328 859.782 488.457 853.006C491.707 848.51 483.152 844.904 479.109 852.569C472.22 866.041 483.767 874.693 502.462 864.1C502.106 869.227 506.278 876.164 509.594 875.615C512.99 875.146 514.348 865.329 512.877 862.467C531.959 872.364 542.261 855.06 531.588 844.354C525.377 838.273 518.343 844.338 522.806 847.621C530.714 852.198 520.639 860.057 514.106 853.702C507.637 846.521 511.761 833.519 520.801 830.85C525.474 829.638 529.825 831.643 534.321 833.939C537.442 829.363 541.291 825.772 546.401 824.673C555.684 822.975 565.209 832.743 562.67 842.058C559.711 850.661 547.161 848.203 552.174 840.554C554.681 835.605 545.657 833.373 542.859 841.589C538.17 855.966 550.929 862.709 567.732 849.335C568.185 854.445 573.376 860.639 576.578 859.588C579.861 858.585 579.667 848.688 577.759 846.084C598.168 852.877 605.639 834.198 593.413 825.271C586.346 820.242 580.346 827.325 585.262 829.88C593.785 833.147 585.068 842.494 577.613 837.222C570.109 831.158 572.147 817.654 580.67 813.627C585.085 811.687 590.13 812.819 594.933 814.387C597.278 809.374 600.529 805.218 605.397 803.342C614.291 800.205 625.24 808.339 624.205 817.945C622.62 826.921 609.86 826.452 613.596 818.107C615.294 812.835 606.027 812.042 604.572 820.597C602.178 835.524 615.844 840.198 630.334 824.333C631.595 829.314 637.692 834.619 640.7 833.082C643.773 831.578 642.026 821.826 639.746 819.562C660.964 823.056 665.395 803.423 651.923 796.533C644.161 792.685 639.342 800.625 644.597 802.372C653.524 804.264 646.376 814.856 638.21 810.829C629.832 806.01 629.719 792.361 637.498 787.04C641.557 784.437 646.781 784.712 651.778 785.504C653.314 780.2 655.869 775.575 660.381 772.955C668.661 768.459 680.758 774.766 681.243 784.421C681.098 793.525 668.403 795.062 670.796 786.248C671.637 780.766 662.371 781.445 662.273 790.129C662.257 805.25 676.489 807.708 688.31 789.757C690.332 794.48 697.189 798.765 699.906 796.76C702.703 794.787 699.453 785.439 696.833 783.564C718.342 783.677 719.636 763.591 705.259 758.917C696.962 756.33 693.453 764.933 698.919 765.823C708.056 766.292 702.655 777.871 693.954 775.186C684.93 771.742 682.666 758.287 689.507 751.802C693.114 748.583 697.9 748.406 702.962 748.406C703.641 742.907 705.437 737.942 709.496 734.643C716.967 728.918 729.905 733.269 731.878 742.713C733.172 751.737 720.881 755.246 721.851 746.158C721.835 740.611 712.795 742.729 714.04 751.317C716.401 766.259 730.827 766.454 739.705 746.885C742.438 751.252 749.877 754.389 752.254 751.996C754.713 749.618 750.039 740.886 747.16 739.446C768.41 736.196 766.567 716.159 751.624 713.781C743.036 712.52 740.918 721.56 746.449 721.592C755.537 720.622 752.028 732.913 743.004 731.619C733.56 729.63 729.209 716.692 734.967 709.221C738.023 705.485 743.554 704.547 748.551 703.755Z" stroke="#006EF5" stroke-width="2"/>
</svg>
