<svg width="94" height="94" viewBox="0 0 94 94" fill="none" xmlns="http://www.w3.org/2000/svg">
<path d="M59.8656 39.8325V43.9688C59.8656 44.8974 60.6085 45.6403 61.537 45.6403C62.4656 45.6403 63.2085 44.8974 63.2085 43.9688V39.8325C63.2085 38.4481 62.6007 37.1481 61.537 36.287C58.363 33.687 54.9864 31.7961 53.3994 30.9688V26.7649C54.176 25.9546 54.6149 24.874 54.6149 23.726V17.6818C54.6149 13.7649 51.424 10.574 47.5072 10.574H46.2072C42.2903 10.574 39.0994 13.7649 39.0994 17.6818V23.726C39.0994 24.874 39.5383 25.9546 40.3149 26.7649V30.952C38.7279 31.7792 35.3513 33.6701 32.1773 36.2701C31.1137 37.1481 30.5059 38.4312 30.5059 39.8156V43.952C30.5059 44.8805 31.2487 45.6234 32.1773 45.6234C33.1059 45.6234 33.8487 44.8805 33.8487 43.952V39.8156C33.8487 39.4442 34.0175 39.0896 34.3046 38.8533C37.9175 35.8818 41.8175 33.9065 42.5773 33.552C43.2357 33.2312 43.6578 32.539 43.6578 31.813V25.9883C43.6578 25.4312 43.3708 24.9078 42.9149 24.6039C42.6279 24.4013 42.4422 24.0805 42.4422 23.726V17.6818C42.4422 15.6052 44.1305 13.9169 46.2072 13.9169H47.5072C49.5838 13.9169 51.2721 15.6052 51.2721 17.6818V23.726C51.2721 24.0805 51.1033 24.4013 50.7994 24.6039C50.3266 24.9078 50.0565 25.4312 50.0565 25.9883V31.813C50.0565 32.5558 50.4786 33.2312 51.137 33.552C51.8799 33.9234 55.7968 35.8818 59.4097 38.8533C59.6968 39.0896 59.8656 39.4442 59.8656 39.8325Z" fill="#006EF5" fill-opacity="0.5"/>
<path d="M75.8199 62.7091C75.3472 63.013 75.077 63.5364 75.077 64.0935V69.9182C75.077 70.6611 75.4991 71.3364 76.1575 71.6572C76.9004 72.0286 80.8173 74.0039 84.4303 76.9585C84.7173 77.1948 84.8861 77.5494 84.8861 77.9208V82.0572C84.8861 82.9857 85.629 83.7286 86.5575 83.7286C87.4861 83.7286 88.229 82.9857 88.229 82.0572V77.9208C88.229 76.5364 87.6212 75.2364 86.5575 74.3753C83.3835 71.7753 80.0069 69.8844 78.4199 69.0572V64.8533C79.1965 64.0429 79.6355 62.9624 79.6355 61.8143V55.7701C79.6355 51.8533 76.4446 48.6624 72.5277 48.6624H71.2277C67.3108 48.6624 64.1199 51.8533 64.1199 55.7701V61.8143C64.1199 62.9624 64.5588 64.0429 65.3355 64.8533V69.0572C63.7484 69.8844 60.3718 71.7753 57.1978 74.3753C56.1342 75.2533 55.5264 76.5533 55.5264 77.9208V82.0572C55.5264 82.9857 56.2692 83.7286 57.1978 83.7286C58.1264 83.7286 58.8692 82.9857 58.8692 82.0572V77.9208C58.8692 77.5494 59.0381 77.1948 59.3251 76.9585C62.9381 73.987 66.8381 72.0117 67.5978 71.6572C68.2562 71.3364 68.6783 70.6442 68.6783 69.9182V64.0935C68.6783 63.5364 68.3913 63.013 67.9355 62.7091C67.6484 62.5065 67.4627 62.1857 67.4627 61.8312V55.787C67.4627 53.7104 69.151 52.0221 71.2277 52.0221H72.5277C74.6043 52.0221 76.2926 53.7104 76.2926 55.787V61.8312C76.2926 62.1857 76.1238 62.5065 75.8199 62.7091Z" fill="#006EF5" fill-opacity="0.5"/>
<path d="M34.8275 77.9376V82.074C34.8275 83.0026 35.5704 83.7454 36.4989 83.7454C37.4275 83.7454 38.1704 83.0026 38.1704 82.074V77.9376C38.1704 76.5532 37.5626 75.2532 36.4989 74.3922C33.3249 71.7922 29.9483 69.9013 28.3613 69.074V64.8701C29.1379 64.0597 29.5769 62.9792 29.5769 61.8311V55.787C29.5769 51.8701 26.386 48.6792 22.4691 48.6792H21.1691C17.2522 48.6792 14.0613 51.8701 14.0613 55.787V61.8311C14.0613 62.9792 14.5002 64.0597 15.2769 64.8701V69.074C13.6899 69.9013 10.3132 71.7922 7.1392 74.3922C6.07557 75.2701 5.46777 76.5532 5.46777 77.9376V82.074C5.46777 83.0026 6.21063 83.7454 7.1392 83.7454C8.06777 83.7454 8.81063 83.0026 8.81063 82.074V77.9376C8.81063 77.5662 8.97946 77.2117 9.26648 76.9753C12.8795 74.0039 16.7795 72.0285 17.5392 71.674C18.2145 71.3532 18.6197 70.6779 18.6197 69.935V64.1104C18.6197 63.5532 18.3327 63.0298 17.8769 62.7259C17.5899 62.5233 17.4041 62.2026 17.4041 61.848V55.8039C17.4041 53.7272 19.0924 52.0389 21.1691 52.0389H22.4691C24.5457 52.0389 26.234 53.7272 26.234 55.8039V61.848C26.234 62.2026 26.0652 62.5233 25.7613 62.7259C25.2886 63.0298 25.0184 63.5532 25.0184 64.1104V69.935C25.0184 70.6779 25.4405 71.3532 26.0989 71.674C26.8418 72.0454 30.7587 74.0039 34.3717 76.9753C34.6587 77.2117 34.8275 77.5493 34.8275 77.9376Z" fill="#006EF5" fill-opacity="0.5"/>
<path d="M46.8484 69.6987C47.777 69.6987 48.5198 68.9559 48.5198 68.0273V65.7818H48.7055C51.8627 65.7818 54.4458 63.2156 54.4458 60.0416C54.4458 56.8676 51.8795 54.3013 48.7055 54.3013H44.9912C43.6744 54.3013 42.5938 53.2208 42.5938 51.9039C42.5938 50.587 43.6744 49.5234 44.9912 49.5234H51.525C52.4536 49.5234 53.1964 48.7805 53.1964 47.852C53.1964 46.9234 52.4536 46.1805 51.525 46.1805H48.5029V43.9689C48.5029 43.0403 47.7601 42.2974 46.8315 42.2974C45.9029 42.2974 45.1601 43.0403 45.1601 43.9689V46.1805H44.9912C41.8341 46.1805 39.251 48.7468 39.251 51.9208C39.251 55.0779 41.8172 57.6611 44.9912 57.6611H48.7055C50.0224 57.6611 51.1029 58.7416 51.1029 60.0585C51.1029 61.3753 50.0224 62.4559 48.7055 62.4559H42.0367C41.1081 62.4559 40.3653 63.1987 40.3653 64.1273C40.3653 65.0559 41.1081 65.7987 42.0367 65.7987H45.1769V68.0442C45.1769 68.9559 45.9198 69.6987 46.8484 69.6987Z" fill="#006EF5"/>
</svg>
