<svg width="84" height="84" viewBox="0 0 84 84" fill="none" xmlns="http://www.w3.org/2000/svg">
<path d="M41.9486 59.2286C41.02 59.2286 40.2771 59.9715 40.2771 60.9001V68.3455C36.8667 69.1053 34.3174 72.1442 34.3174 75.7741C34.3174 79.978 37.7447 83.4053 41.9486 83.4053C46.1525 83.4053 49.5797 79.978 49.5797 75.7741C49.5797 72.1442 47.0304 69.1053 43.62 68.3455V60.9001C43.62 59.9715 42.8771 59.2286 41.9486 59.2286ZM46.2369 75.791C46.2369 78.1546 44.3122 80.0793 41.9486 80.0793C39.5849 80.0793 37.6602 78.1546 37.6602 75.791C37.6602 73.4273 39.5849 71.5027 41.9486 71.5027C44.3122 71.5027 46.2369 73.4273 46.2369 75.791Z" fill="#006EF5" fill-opacity="0.5"/>
<path d="M41.9486 24.9559C42.8771 24.9559 43.62 24.213 43.62 23.2844V15.839C47.0304 15.0792 49.5797 12.0403 49.5797 8.4104C49.5797 4.20651 46.1525 0.779236 41.9486 0.779236C37.7447 0.779236 34.3174 4.20651 34.3174 8.4104C34.3174 12.0403 36.8667 15.0792 40.2771 15.839V23.2844C40.2771 24.213 41.02 24.9559 41.9486 24.9559ZM37.6602 8.39352C37.6602 6.02988 39.5849 4.10521 41.9486 4.10521C44.3122 4.10521 46.2369 6.02988 46.2369 8.39352C46.2369 10.7572 44.3122 12.6818 41.9486 12.6818C39.5849 12.6818 37.6602 10.7572 37.6602 8.39352Z" fill="#006EF5" fill-opacity="0.5"/>
<path d="M68.2018 43.7637C68.9616 47.174 72.0005 49.7234 75.6304 49.7234C79.8343 49.7234 83.2616 46.2961 83.2616 42.0922C83.2616 37.8883 79.8343 34.4611 75.6304 34.4611C72.0005 34.4611 68.9616 37.0104 68.2018 40.4208H60.7564C59.8278 40.4208 59.085 41.1637 59.085 42.0922C59.085 43.0208 59.8278 43.7637 60.7564 43.7637H68.2018ZM71.359 42.0922C71.359 39.7286 73.2837 37.8039 75.6473 37.8039C78.0109 37.8039 79.9356 39.7286 79.9356 42.0922C79.9356 44.4559 78.0109 46.3805 75.6473 46.3805C73.2837 46.3805 71.359 44.4559 71.359 42.0922Z" fill="#006EF5" fill-opacity="0.5"/>
<path d="M0.635742 42.0922C0.635742 46.2961 4.06302 49.7234 8.26691 49.7234C11.8968 49.7234 14.9357 47.174 15.6955 43.7637H23.1409C24.0695 43.7637 24.8124 43.0208 24.8124 42.0922C24.8124 41.1637 24.0695 40.4208 23.1409 40.4208H15.6955C14.9357 37.0104 11.8968 34.4611 8.26691 34.4611C4.04613 34.4611 0.635742 37.8883 0.635742 42.0922ZM12.5383 42.0922C12.5383 44.4559 10.6137 46.3805 8.25003 46.3805C5.88639 46.3805 3.96172 44.4559 3.96172 42.0922C3.96172 39.7286 5.88639 37.8039 8.25003 37.8039C10.6137 37.8039 12.5383 39.7286 12.5383 42.0922Z" fill="#006EF5" fill-opacity="0.5"/>
<path d="M54.071 54.2143C53.4125 54.8727 53.4125 55.9195 54.071 56.5779L59.3385 61.8455C58.5619 63.061 58.1567 64.4623 58.1567 65.9143C58.1567 67.9571 58.9502 69.8649 60.3853 71.3C61.8203 72.7351 63.745 73.5286 65.771 73.5286C67.8138 73.5286 69.7216 72.7351 71.1567 71.3C74.1281 68.3286 74.1281 63.4831 71.1567 60.5117C69.7216 59.0766 67.797 58.2831 65.771 58.2831C64.3021 58.2831 62.9009 58.7052 61.7022 59.4649L56.4346 54.1974C55.7762 53.5558 54.7125 53.5558 54.071 54.2143ZM62.7489 62.8922C63.5593 62.0818 64.6398 61.6429 65.771 61.6429C66.919 61.6429 67.9827 62.0818 68.7931 62.8922C70.4645 64.5636 70.4645 67.2818 68.7931 68.9532C67.9827 69.7636 66.9022 70.2026 65.771 70.2026C64.6229 70.2026 63.5593 69.7636 62.7489 68.9532C61.9385 68.1429 61.4996 67.0623 61.4996 65.9312C61.4827 64.7662 61.9385 63.7026 62.7489 62.8922Z" fill="#006EF5" fill-opacity="0.5"/>
<path d="M23.5127 12.8845C22.0776 11.4494 20.153 10.6559 18.127 10.6559C16.0841 10.6559 14.1763 11.4494 12.7413 12.8845C11.3062 14.3195 10.5127 16.2442 10.5127 18.2702C10.5127 20.313 11.3062 22.2208 12.7413 23.6559C14.1763 25.091 16.101 25.8845 18.127 25.8845C19.5958 25.8845 20.9971 25.4624 22.1958 24.7026L27.4633 29.9702C27.7841 30.2909 28.2231 30.4598 28.6452 30.4598C29.0672 30.4598 29.5062 30.2909 29.827 29.9702C30.4854 29.3117 30.4854 28.265 29.827 27.6065L24.5594 22.339C25.3361 21.1234 25.7413 19.7221 25.7413 18.2702C25.7581 16.2273 24.9646 14.3195 23.5127 12.8845ZM21.1491 21.2922C20.3387 22.1026 19.2581 22.5416 18.127 22.5416C16.9789 22.5416 15.9153 22.1026 15.1049 21.2922C14.2945 20.4819 13.8556 19.4013 13.8556 18.2702C13.8556 17.139 14.2945 16.0416 15.1049 15.2481C15.9153 14.4377 16.9958 13.9987 18.127 13.9987C19.275 13.9987 20.3387 14.4377 21.1491 15.2481C21.9594 16.0585 22.3984 17.139 22.3984 18.2702C22.4153 19.4182 21.9594 20.4819 21.1491 21.2922Z" fill="#006EF5" fill-opacity="0.5"/>
<path d="M58.1401 18.2701C58.1401 19.739 58.5622 21.1403 59.3219 22.339L54.0544 27.6065C53.3959 28.2649 53.3959 29.3117 54.0544 29.9701C54.3752 30.2909 54.8141 30.4598 55.2362 30.4598C55.6583 30.4598 56.0972 30.2909 56.418 29.9701L61.7024 24.7026C62.918 25.4792 64.3193 25.8844 65.7713 25.8844C67.8141 25.8844 69.7219 25.0909 71.157 23.6559C74.1284 20.6844 74.1284 15.839 71.157 12.8675C69.7219 11.4325 67.7972 10.639 65.7713 10.639C63.7284 10.639 61.8206 11.4325 60.3855 12.8675C58.9336 14.3195 58.1401 16.2273 58.1401 18.2701ZM62.7492 15.2481C63.5596 14.4377 64.6401 13.9987 65.7713 13.9987C66.9193 13.9987 67.983 14.4377 68.7933 15.2481C70.4648 16.9195 70.4648 19.6377 68.7933 21.3091C67.983 22.1195 66.9024 22.5585 65.7713 22.5585C64.6232 22.5585 63.5596 22.1195 62.7492 21.3091C61.9388 20.4987 61.4998 19.4182 61.4998 18.287C61.483 17.1221 61.9388 16.0416 62.7492 15.2481Z" fill="#006EF5" fill-opacity="0.5"/>
<path d="M29.827 54.2144C29.1685 53.5559 28.1218 53.5559 27.4633 54.2144L22.1958 59.4819C20.9802 58.7053 19.5789 58.3001 18.127 58.3001C16.0841 58.3001 14.1763 59.0936 12.7413 60.5286C11.3062 61.9637 10.5127 63.8884 10.5127 65.9143C10.5127 67.9572 11.3062 69.865 12.7413 71.3001C14.1763 72.7351 16.101 73.5286 18.127 73.5286C20.1698 73.5286 22.0776 72.7351 23.5127 71.3001C26.0789 68.7338 26.4335 64.7832 24.5594 61.8286L29.827 56.5611C30.4854 55.9195 30.4854 54.8559 29.827 54.2144ZM21.1491 68.9364C20.3387 69.7468 19.2581 70.1858 18.127 70.1858C16.9789 70.1858 15.9153 69.7468 15.1049 68.9364C14.2945 68.126 13.8556 67.0455 13.8556 65.9143C13.8556 64.7663 14.2945 63.7027 15.1049 62.8923C15.9153 62.0819 16.9958 61.6429 18.127 61.6429C19.275 61.6429 20.3387 62.0819 21.1491 62.8923C22.8205 64.5637 22.8205 67.2819 21.1491 68.9364Z" fill="#006EF5" fill-opacity="0.5"/>
<path d="M40.007 43.7299H43.8733C45.2914 43.7299 46.4395 44.8779 46.4395 46.313C46.4395 47.7312 45.2914 48.8792 43.8733 48.8792H36.9174C35.9888 48.8792 35.246 49.6221 35.246 50.5507C35.246 51.4792 35.9888 52.2221 36.9174 52.2221H40.2772V54.6533C40.2772 55.5818 41.02 56.3247 41.9486 56.3247C42.8772 56.3247 43.62 55.5818 43.62 54.6533V52.2221H43.8901C47.1486 52.2221 49.8161 49.5714 49.8161 46.313C49.8161 43.0546 47.1655 40.387 43.8901 40.387H40.0239C38.6057 40.387 37.4577 39.239 37.4577 37.8208C37.4577 36.4026 38.6057 35.2545 40.0239 35.2545H46.8447C47.7733 35.2545 48.5161 34.5117 48.5161 33.5831C48.5161 32.6545 47.7733 31.9117 46.8447 31.9117H43.62V29.5312C43.62 28.6026 42.8772 27.8597 41.9486 27.8597C41.02 27.8597 40.2772 28.6026 40.2772 29.5312V31.9117H40.007C36.7486 31.9117 34.0811 34.5623 34.0811 37.8377C34.0979 41.0792 36.7486 43.7299 40.007 43.7299Z" fill="#006EF5"/>
</svg>
